<svg id="Capa_1" enable-background="new 0 0 512.036 512.036" height="512" viewBox="0 0 512.036 512.036" width="512" xmlns="http://www.w3.org/2000/svg"><g><path d="m240.525 234.268c-8.382-6.124-23.348-12.125-47.043-5.94-14.416 3.762-24.483 16.878-24.483 31.896 0 10.113 4.536 19.527 12.445 25.829 5.924 4.719 13.124 7.204 20.506 7.204 2.47 0 4.961-.278 7.43-.844 21.584-4.945 35.296-17.066 39.653-35.052 2.11-8.71-1.229-17.774-8.508-23.093zm-6.07 19.56c-2.971 12.26-12.534 20.322-28.425 23.963-5.373 1.232-10.926-.035-15.238-3.47-4.317-3.44-6.793-8.578-6.793-14.098 0-8.195 5.457-15.342 13.271-17.382 5.744-1.5 10.737-2.11 15.063-2.11 9.232 0 15.421 2.783 19.342 5.648 2.33 1.703 3.447 4.696 2.78 7.449z"/><path d="m302.656 292.412c2.469.566 4.959.844 7.429.844 7.382 0 14.584-2.484 20.506-7.204 7.91-6.302 12.446-15.717 12.446-25.829 0-15.018-10.068-28.133-24.483-31.896-23.697-6.184-38.661-.183-47.043 5.94-7.278 5.318-10.618 14.382-8.508 23.092 4.357 17.987 18.069 30.108 39.653 35.053zm-22.296-46.032c5.759-4.208 16.402-8.236 34.405-3.538 7.813 2.04 13.271 9.187 13.271 17.382 0 5.52-2.477 10.658-6.793 14.098-4.313 3.436-9.867 4.701-15.238 3.47-15.891-3.641-25.454-11.704-28.425-23.963-.666-2.754.451-5.747 2.78-7.449z"/><path d="m227.111 319.507c-2.567 6.874-1.602 14.577 2.582 20.605 4.186 6.031 11.067 9.632 18.41 9.632h15.829c7.342 0 14.225-3.601 18.41-9.633 4.184-6.028 5.148-13.731 2.582-20.604 0 0-.001 0-.001-.001-3.68-9.849-9.028-18.483-15.898-25.663-3.432-3.586-8.051-5.561-13.007-5.561-4.957 0-9.576 1.975-13.008 5.561-6.871 7.18-12.22 15.815-15.899 25.664zm28.907-16.225c.477 0 1.394.121 2.169.931 5.454 5.701 9.723 12.612 12.685 20.542.86 2.304.55 4.784-.853 6.805-1.404 2.024-3.623 3.185-6.087 3.185h-15.829c-2.464 0-4.683-1.161-6.087-3.184-1.402-2.021-1.714-4.501-.853-6.805 2.961-7.93 7.229-14.841 12.685-20.542.776-.811 1.693-.932 2.17-.932z"/><path d="m77.721 387.385c-28.249-28.59-76.676-8.854-77.688 30.746-.634 24.716 18.259 44.458 41.57 46.411 3.104.261 5.64 2.797 5.9 5.9.894 10.665 5.559 20.71 13.135 28.287 18.248 18.246 48.226 17.768 65.822-1.692 16.203-17.918 15.534-45.59-1.803-62.716-.875-.864-.928-2.293-.021-3.201l39.694-39.694c3.968 11.56 10.209 22.317 18.506 31.599l7.971 8.917c11.387 12.739 27.717 20.046 44.804 20.046h40.813c17.085 0 33.416-7.306 44.804-20.046l7.971-8.917c8.296-9.282 14.537-20.039 18.505-31.599l39.694 39.695c.91.909.851 2.338-.022 3.201-17.353 17.159-17.986 44.817-1.801 62.715 17.644 19.511 47.624 19.889 65.822 1.692 7.576-7.577 12.241-17.623 13.135-28.287.261-3.103 2.797-5.64 5.899-5.9 10.665-.894 20.71-5.559 28.287-13.135 18.371-18.371 17.678-48.344-1.728-65.854-17.856-16.112-45.487-15.549-62.677 1.832-.907.919-2.341.89-3.204.025l-66.275-66.275c.604-.788 1.191-1.595 1.753-2.424 9.285-13.691 11.17-30.944 5.041-46.152-.45-1.119-.444-2.321.018-3.387l3.677-8.485c4.194-9.68 7.262-19.782 9.116-30.025.738-4.076-1.968-7.979-6.044-8.716-4.075-.74-7.978 1.968-8.716 6.044-1.65 9.113-4.382 18.108-8.12 26.734l-3.676 8.484c-2.041 4.707-2.102 10.159-.167 14.958 4.321 10.725 3.03 22.435-3.543 32.127-6.475 9.548-17.396 15.456-28.736 15.346h-.001c-.04 0-.08 0-.121 0-7.719 0-14.997 3.017-20.504 8.501-5.621 5.597-8.715 13.05-8.715 20.984v17.429c0 .771-.522 1.441-1.27 1.629-2.435.612-4.886 1.147-7.345 1.642-.26-3.906-3.502-6.997-7.475-6.997-4.143 0-7.5 3.358-7.5 7.5v1.775c-2.991.31-5.989.534-8.991.675v-.498c0-4.142-3.357-7.5-7.5-7.5s-7.5 3.358-7.5 7.5v.498c-3.002-.141-6-.365-8.991-.675v-1.775c0-4.142-3.357-7.5-7.5-7.5-3.973 0-7.215 3.09-7.475 6.997-2.457-.495-4.907-1.029-7.34-1.641-.723-.183-1.273-.417-1.273-1.294v-17.764c0-7.935-3.095-15.387-8.715-20.983-9.723-9.685-22.116-8.502-20.505-8.502-12.322-.07-22.608-6.129-28.858-15.347-6.572-9.692-7.863-21.402-3.542-32.126 1.934-4.798 1.873-10.25-.166-14.958l-3.677-8.485c-6.519-15.042-9.877-30.716-9.982-46.585-.083-12.493 1.521-23.97 4.774-34.423.02-.057.047-.111.065-.169 4.553-14.473 12.436-27.134 23.43-37.632.198-.189.382-.389.556-.597 8.166-7.652 18.043-14.2 29.644-19.602 12.77-5.947 26.386-9.841 40.471-11.575 4.111-.506 7.034-4.249 6.527-8.36-.506-4.112-4.26-7.031-8.359-6.527-15.646 1.926-30.776 6.254-44.971 12.865-9.444 4.398-19.432 10.277-28.739 18.073l-39.249-39.253c-.836-.836-.933-2.231.211-3.398 8.872-8.872 13.71-21.154 13.272-33.698-.443-12.72-6-24.344-15.646-32.731-17.36-15.092-43.279-14.776-60.29.736-8.438 7.693-13.645 18.169-14.66 29.499-.29 3.227-3.016 5.894-6.341 6.203-10.504.978-20.401 5.63-27.87 13.099-18.357 18.358-17.68 48.304 1.691 65.822 17.911 16.196 45.583 15.542 62.717-1.803.862-.871 2.293-.929 3.2-.021l48.827 48.827c-2.781 10.301-4.344 21.828-4.259 34.761.119 17.899 3.894 35.546 11.219 52.45l3.677 8.484c.462 1.066.468 2.27.018 3.388-6.129 15.208-4.245 32.46 5.039 46.151.562.83 1.149 1.637 1.754 2.425l-66.275 66.275c-.902.903-2.332.859-3.203-.023zm275.002-25.979v-28.962c.125-.083.246-.171.37-.255.315-.213.632-.421.942-.641l66.468 66.468c6.734 6.734 17.706 6.765 24.479-.087 11.514-11.65 30.01-12.022 41.959-1.24 13.082 11.806 13.408 31.874 1.169 44.112-5.072 5.073-11.796 8.196-18.933 8.794-10.476.879-18.716 9.12-19.594 19.595-.599 7.136-3.722 13.86-8.795 18.933-12.358 12.361-32.394 11.787-44.09-1.146-10.783-11.924-10.462-30.444 1.22-41.984 6.81-6.729 6.869-17.695.085-24.478l-46.188-46.189c.61-4.436.908-9.046.908-12.92zm-178.412-22.275c6.7 1.71 12.536 1.507 12.147 1.507h.001c4.165.024 7.531 1.492 10.18 4.129 2.772 2.762 4.3 6.439 4.3 10.355v17.764c0 6.817 4.217 12.787 10.442 15.162 2.681 1.024 10.404 2.552 13.146 3.054v1.526c0 4.142 3.357 7.5 7.5 7.5 3.956 0 7.189-3.065 7.472-6.948 3.001.284 6.008.478 9.019.607v.792c0 4.142 3.357 7.5 7.5 7.5s7.5-3.358 7.5-7.5v-.792c3.011-.129 6.018-.323 9.019-.607.283 3.884 3.516 6.948 7.472 6.948 4.143 0 7.5-3.358 7.5-7.5v-1.526c3.682-.675 7.344-1.463 10.979-2.377 7.425-1.868 12.61-8.52 12.61-16.176v-17.429c0-3.917 1.527-7.594 4.3-10.355 6.224-6.199 10.726-2.677 22.326-5.636v22.275c0 4.73-.438 9.487-1.301 14.138-.002.013-.002.026-.005.039-2.572 13.844-8.885 26.8-18.402 37.447l-7.971 8.917c-8.545 9.56-20.8 15.042-33.62 15.042h-40.813c-12.821 0-25.075-5.482-33.62-15.042l-7.971-8.917c-9.515-10.645-15.828-23.597-18.401-37.437-.003-.016-.003-.033-.006-.05-.863-4.654-1.302-9.411-1.302-14.138v-22.272zm-39.034-181.344-43.745-43.746c-6.67-6.67-17.65-6.827-24.478.085-11.544 11.685-30.063 12-41.986 1.219-13.034-11.787-13.396-31.838-1.145-44.089 5-5 11.625-8.115 18.653-8.77 10.583-.985 18.948-9.311 19.89-19.798.68-7.582 4.17-14.597 9.827-19.755 11.198-10.21 28.92-10.431 40.342-.5 6.473 5.627 10.2 13.417 10.497 21.933.298 8.525-2.858 16.541-8.946 22.628-6.919 6.882-6.857 17.847-.153 24.552l39.013 39.013c-7.552 8.323-13.554 17.752-17.769 27.228zm22.727 173.756c.111.079 1.112.77 1.308.9v28.962c0 4.297.39 9.293.908 12.919l-46.189 46.189c-6.769 6.77-6.739 17.735.085 24.478 0 0 .001 0 .002.001 11.681 11.545 11.999 30.061 1.219 41.983-11.763 13.007-31.808 13.429-44.091 1.146-5.072-5.073-8.195-11.797-8.794-18.933-.878-10.475-9.118-18.716-19.595-19.595-15.605-1.308-28.252-14.533-27.828-31.079.425-16.66 14.069-29.63 30.401-29.63 8.156 0 15.909 3.255 21.621 9.042 6.748 6.828 17.721 6.847 24.481.087z"/><path d="m272.601 104.139c14.083 1.733 27.699 5.628 40.472 11.575 34.353 15.996 54.368 42.542 57.894 79.325.372 3.88 3.637 6.785 7.457 6.785.239 0 .481-.011.725-.035 4.123-.395 7.146-4.058 6.75-8.182-.67-6.991-1.895-13.696-3.635-20.113l48.848-48.847c.907-.908 2.339-.851 3.2.021 17.134 17.345 44.807 17.997 62.716 1.803 9.342-8.448 14.66-20.015 14.976-32.569.315-12.561-4.402-24.37-13.284-33.252-7.469-7.469-17.366-12.121-27.869-13.099-3.325-.31-6.051-2.976-6.341-6.203-1.017-11.33-6.224-21.806-14.66-29.499-17.013-15.51-42.93-15.829-60.29-.736-9.646 8.387-15.203 20.011-15.646 32.731-.448 12.832 4.617 25.131 13.36 33.784l-.001.001c.934.929 1.047 2.386.123 3.31l-39.25 39.25c-8.304-6.971-17.895-13.023-28.74-18.072-14.197-6.611-29.328-10.939-44.972-12.865-4.097-.5-7.854 2.416-8.359 6.527-.508 4.111 2.415 7.855 6.526 8.36zm125.401-12.593c3.25-3.25 5.036-7.571 5.029-12.167-.006-4.669-1.847-9.067-5.182-12.385-.03-.03-.061-.059-.091-.088l.03.029c-6.027-6.028-9.184-14.043-8.887-22.568.297-8.517 4.025-16.307 10.498-21.934 11.422-9.932 29.141-9.711 40.342.5 5.656 5.158 9.146 12.173 9.827 19.756.941 10.486 9.307 18.812 19.89 19.797 7.027.654 13.652 3.769 18.652 8.77 5.948 5.948 9.107 13.857 8.896 22.27-.211 8.406-3.777 16.155-10.041 21.82-11.924 10.784-30.445 10.462-41.985-1.219-6.644-6.726-17.621-6.94-24.478-.085l-43.744 43.745c-4.439-9.977-10.384-19.087-17.77-27.228z"/></g></svg>